Coordinates
version=1
nRows=32
nColumns=22
inDegrees=yes

Units are S.I. units (second, meters, Newtons, ...)
If the header above contains a line with 'inDegrees', this indicates whether rotational values are in degrees (yes) or radians (no).

endheader
time	pelvis_tilt	pelvis_list	pelvis_rotation	pelvis_tx	pelvis_ty	pelvis_tz	hip_flexion_r	hip_adduction_r	hip_rotation_r	knee_angle_r	ankle_angle_r	subtalar_angle_r	hip_flexion_l	hip_adduction_l	hip_rotation_l	knee_angle_l	ankle_angle_l	subtalar_angle_l	lumbar_extension	lumbar_bending	lumbar_rotation
      6.93000000	     -8.05018402	     -6.95355578	   -105.79607161	      0.28347439	      0.95044429	      0.57405641	      8.92537461	     -4.12552778	    -18.27815635	    -32.66063148	     10.60706207	     27.97929139	     -7.84247440	     -9.21831651	    -28.94714389	    -19.90345165	     24.49020301	     -7.58675914	    -17.54972043	      2.93773737	     -9.30171301
      6.94000000	     -8.18515557	     -6.95209517	   -106.39025045	      0.28078294	      0.95047755	      0.57453590	      8.65723441	     -4.70510096	    -19.29889407	    -31.80710170	     10.56701674	     27.40685523	     -8.08738299	     -9.35792910	    -29.32792515	    -19.94453861	     24.54584828	     -7.76461225	    -17.55497994	      2.98628726	     -9.29902415
      6.95000000	     -8.31661442	     -6.91890803	   -106.99219334	      0.27790829	      0.95042889	      0.57495064	      8.42028025	     -5.19874022	    -20.17500380	    -30.89266645	     10.50463084	     26.91327909	     -8.28743362	     -9.52131563	    -29.70933673	    -20.02466684	     24.59453690	     -7.94598725	    -17.53662453	      3.02986438	     -9.24578808
      6.96000000	     -8.42045646	     -6.85577076	   -107.61211012	      0.27486569	      0.95028645	      0.57528203	      8.24221896	     -5.63394572	    -20.87083789	    -29.95438982	     10.42280004	     26.38469549	     -8.44580426	     -9.67268760	    -30.08589492	    -20.12176012	     24.62145266	     -8.13600184	    -17.49147191	      3.04714303	     -9.13487427
      6.97000000	     -8.55190529	     -6.77229509	   -108.22626330	      0.27166392	      0.95009066	      0.57555354	      8.06896374	     -5.94855336	    -21.39272600	    -28.95925482	     10.31751197	     26.12587098	     -8.57646497	     -9.88933341	    -30.47342989	    -20.26757324	     24.69743403	     -8.27044723	    -17.44652760	      3.10167080	     -9.02098469
      6.98000000	     -8.66393879	     -6.67775384	   -108.86449401	      0.26830184	      0.94983135	      0.57574182	      7.94181635	     -6.21131067	    -21.71480807	    -27.97354965	     10.17947154	     25.81611372	     -8.69160659	    -10.10252433	    -30.89265502	    -20.43303778	     24.76137181	     -8.38911801	    -17.40038255	      3.13570557	     -8.86494479
      6.99000000	     -8.76604117	     -6.57172782	   -109.51450243	      0.26478405	      0.94951034	      0.57584794	      7.85551443	     -6.42457492	    -21.87501175	    -27.01265031	     10.01627881	     25.46073412	     -8.78919433	    -10.32732710	    -31.32815255	    -20.62337066	     24.83331329	     -8.47028146	    -17.35503545	      3.15916367	     -8.68023725
      7.00000000	     -8.85866139	     -6.46003033	   -110.17407394	      0.26112954	      0.94913525	      0.57587486	      7.80685787	     -6.60354764	    -21.89906988	    -26.09883152	      9.82441305	     25.04433259	     -8.87601019	    -10.56028829	    -31.77952795	    -20.83656687	     24.91160014	     -8.51449587	    -17.31643549	      3.17490799	     -8.47406462
      7.01000000	     -8.93947199	     -6.36059196	   -110.82070229	      0.25736649	      0.94872256	      0.57583404	      7.77905393	     -6.78578626	    -21.89892650	    -25.26599002	      9.62280890	     24.35853064	     -8.95998154	    -10.80030834	    -32.23468774	    -21.08202445	     24.97579736	     -8.49091972	    -17.30357942	      3.17534692	     -8.27453815
      7.02000000	     -9.00909060	     -6.26023905	   -111.47903232	      0.25347902	      0.94826568	      0.57572424	      7.78953558	     -6.96331137	    -21.83405156	    -24.52006946	      9.38598215	     23.68086916	     -9.04439386	    -11.03513224	    -32.69588519	    -21.33261187	     25.05392189	     -8.48960228	    -17.29753494	      3.17153126	     -8.06281581
      7.03000000	     -9.06175093	     -6.16191742	   -112.14486920	      0.24945906	      0.94777695	      0.57559944	      7.83088913	     -7.15814459	    -21.77730284	    -23.86965950	      9.11823932	     22.97208090	     -9.14768419	    -11.24661979	    -33.15149725	    -21.55108565	     25.13485774	     -8.50728854	    -17.28696078	      3.15691543	     -7.85419005
      7.04000000	     -9.09660850	     -6.11397734	   -112.76905998	      0.24539075	      0.94727586	      0.57548188	      7.86700716	     -7.44115732	    -21.95840729	    -23.38952285	      8.88817403	     21.84364356	     -9.27137555	    -11.44177658	    -33.56190682	    -21.81181566	     25.19178887	     -8.48917921	    -17.32596056	      3.12268299	     -7.68974449
      7.05000000	     -9.11817370	     -6.08116226	   -113.39514990	      0.24119081	      0.94676195	      0.57540578	      7.91538771	     -7.76656130	    -22.27626529	    -23.02886417	      8.64838813	     20.69103142	     -9.43443613	    -11.60420742	    -33.95790519	    -22.02434928	     25.25627197	     -8.50063772	    -17.36810697	      3.08622887	     -7.55606237
      7.06000000	     -9.12706679	     -6.08920593	   -114.00276676	      0.23688203	      0.94625855	      0.57540594	      7.94483619	     -8.16306983	    -22.82885905	    -22.80371274	      8.42089726	     19.36936983	     -9.64851112	    -11.73133242	    -34.31388893	    -22.20948498	     25.32272999	     -8.51322896	    -17.43140943	      3.04174757	     -7.47285873
      7.07000000	     -9.12890273	     -6.14095359	   -114.57878448	      0.23246929	      0.94578104	      0.57552398	      7.93380508	     -8.63281124	    -23.67126044	    -22.70189488	      8.22817369	     17.92243515	     -9.92423820	    -11.82362308	    -34.61612712	    -22.34772037	     25.38024421	     -8.51963524	    -17.51447185	      2.99963218	     -7.46170077
      7.08000000	     -9.12610243	     -6.21726750	   -115.14631041	      0.22789956	      0.94529187	      0.57567887	      7.90790611	     -9.15360581	    -24.75123596	    -22.72568840	      8.08474672	     16.30427476	    -10.22192973	    -11.91758355	    -34.94135326	    -22.50861602	     25.39871307	     -8.52504837	    -17.60808770	      2.95743617	     -7.49037700
      7.09000000	     -9.13061890	     -6.35008686	   -115.68337416	      0.22320416	      0.94487156	      0.57595502	      7.79539837	     -9.73295707	    -26.12762089	    -22.83567646	      7.96491715	     14.58700652	    -10.60670802	    -11.98429062	    -35.22269410	    -22.61117806	     25.39287322	     -8.50507061	    -17.73907987	      2.92167831	     -7.57927553
      7.10000000	     -9.13903845	     -6.51664294	   -116.19521693	      0.21835217	      0.94448321	      0.57633814	      7.61250827	    -10.35416779	    -27.76542233	    -23.01909974	      7.86948706	     12.74035627	    -11.05406628	    -12.03678759	    -35.48751279	    -22.66516239	     25.39296115	     -8.43701922	    -17.87985033	      2.89311454	     -7.72422321
      7.11000000	     -9.16812770	     -6.73205734	   -116.67155537	      0.21332994	      0.94416882	      0.57680668	      7.31489657	    -10.99797863	    -29.66759128	    -23.24894630	      7.82657444	     10.84169498	    -11.57401548	    -12.09526277	    -35.71993783	    -22.69186243	     25.31371727	     -8.31924806	    -18.05852525	      2.87357904	     -7.91033413
      7.12000000	     -9.22252893	     -6.98377262	   -117.11435000	      0.20810867	      0.94392374	      0.57734141	      6.89481358	    -11.63412985	    -31.79485392	    -23.49007309	      7.82970601	      8.92386104	    -12.15850137	    -12.17267895	    -35.92488544	    -22.69078402	     25.15927843	     -8.13903599	    -18.26552968	      2.86457957	     -8.12338495
      7.13000000	     -9.30115561	     -7.24289111	   -117.53761066	      0.20266187	      0.94369389	      0.57793280	      6.38717345	    -12.23572752	    -34.07599859	    -23.74880684	      7.86688009	      6.95659321	    -12.78711541	    -12.27948461	    -36.11838643	    -22.65814436	     25.00615677	     -7.86722553	    -18.46931566	      2.88121614	     -8.35609276
      7.14000000	     -9.41360658	     -7.51369100	   -117.93470264	      0.19696208	      0.94350400	      0.57852693	      5.76664533	    -12.76612715	    -36.47109784	    -23.98136581	      7.94863913	      5.03761601	    -13.45447923	    -12.43479404	    -36.28538880	    -22.61650416	     24.79930634	     -7.52122854	    -18.68339744	      2.91673162	     -8.59360110
      7.15000000	     -9.55848342	     -7.77042875	   -118.32094440	      0.19097560	      0.94331444	      0.57909366	      5.06846973	    -13.18965359	    -38.89161283	    -24.17742669	      8.07457337	      3.15012756	    -14.13931837	    -12.64800498	    -36.43817568	    -22.56909143	     24.55793418	     -7.09642216	    -18.88364739	      2.98084375	     -8.82710350
      7.16000000	     -9.73903537	     -8.00748850	   -118.70419270	      0.18467581	      0.94312332	      0.57957843	      4.30682405	    -13.47337829	    -41.25219053	    -24.31835149	      8.21302734	      1.38712484	    -14.82982020	    -12.93023199	    -36.58614399	    -22.53451496	     24.26693292	     -6.62751762	    -19.06826634	      3.07086978	     -9.04824363
      7.17000000	     -9.93923147	     -8.20017288	   -119.09953624	      0.17803804	      0.94287393	      0.57993003	      3.54412682	    -13.60298609	    -43.44805536	    -24.40951693	      8.37492368	     -0.24705797	    -15.49129656	    -13.27758961	    -36.73394093	    -22.52706029	     23.96354957	     -6.11867715	    -19.20881317	      3.17898009	     -9.24870186
      7.18000000	    -10.16132949	     -8.34560132	   -119.52199250	      0.17105541	      0.94256193	      0.58008200	      2.81505641	    -13.56405592	    -45.38507378	    -24.45754520	      8.52444264	     -1.69877800	    -16.11415391	    -13.69393516	    -36.88040632	    -22.56876370	     23.63744518	     -5.59882950	    -19.31380770	      3.30278695	     -9.40402299
      7.19000000	    -10.37876138	     -8.41233006	   -119.99358163	      0.16369208	      0.94213767	      0.58004655	      2.18983260	    -13.35159134	    -46.95235108	    -24.44432423	      8.69754292	     -2.98399826	    -16.67486393	    -14.16076959	    -37.07662857	    -22.64312612	     23.27940323	     -5.06343404	    -19.32820974	      3.43670342	     -9.53569373
      7.20000000	    -10.60810856	     -8.41760136	   -120.52146430	      0.15598047	      0.94164114	      0.57973040	      1.67995964	    -12.97213923	    -48.10535678	    -24.40275681	      8.77493650	     -4.03033103	    -17.18136847	    -14.68594300	    -37.28578111	    -22.77899327	     22.89268670	     -4.54282615	    -19.30021333	      3.57894270	     -9.59639798
      7.21000000	    -10.86906900	     -8.34896265	   -121.10413774	      0.14793204	      0.94110298	      0.57914691	      1.28703292	    -12.39514429	    -48.80446184	    -24.30007276	      8.76423581	     -4.63806602	    -17.63669413	    -15.28745154	    -37.47233888	    -22.97216305	     22.48983573	     -4.21320860	    -19.22919828	      3.76229555	     -9.58225308
      7.22000000	    -11.07537510	     -8.19833207	   -121.78261399	      0.13954610	      0.94041858	      0.57827219	      1.13446079	    -11.76264313	    -49.00171038	    -24.26977230	      8.67047828	     -5.41122593	    -17.99868896	    -15.89796427	    -37.79781841	    -23.24758543	     21.98438800	     -3.55478249	    -19.06147706	      3.90798221	     -9.51153323
      7.23000000	    -11.30417619	     -7.96816053	   -122.52305875	      0.13085958	      0.93974025	      0.57714269	      1.12273807	    -10.97616802	    -48.74104685	    -24.21339248	      8.47470329	     -5.77508646	    -18.31066241	    -16.56207136	    -38.05520928	    -23.56287661	     21.42956561	     -3.07444948	    -18.84829650	      4.09613938	     -9.33804501
      7.24000000	    -11.53386647	     -7.67852963	   -123.33468259	      0.12191577	      0.93905726	      0.57574613	      1.26541164	    -10.11627874	    -48.05756658	    -24.21780878	      8.18183149	     -5.93069207	    -18.57103668	    -17.26995619	    -38.33039346	    -23.96446497	     20.82776633	     -2.59473775	    -18.60666080	      4.30071948	     -9.10741546
